pedal_clip_forces_x_-0.1_y_-0.04.mot
version=1
nRows=147
nColumns=4
inDegrees=yes
endheader
time	PedalClip_calcn_r_Fx	PedalClip_calcn_r_Fy	PedalClip_calcn_r_Fz
0.24310655	-403.888441126859	724.162143391898	0
0.24322832	-404.831947606343	726.146062458138	0
0.24334833	-405.777756075478	728.135601933497	0
0.24347158	-406.725876712043	730.130785446123	0
0.24359146	-407.676319757457	732.131636640706	0
0.24371511	-408.629093354509	734.1381749103	0
0.24383521	-409.584205699566	736.150419660479	0
0.24395706	-410.541663186347	738.168386581492	0
0.24407686	-411.501472543106	740.192092028268	0
0.24420035	-412.463638752583	742.22154899546	0
0.24432008	-413.428168097742	744.256773081511	0
0.24444363	-414.395065645567	746.29777759397	0
0.24456348	-415.364338520904	748.344579825687	0
0.24468557	-416.335992053354	750.397193550466	0
0.24480519	-417.310033217881	752.455635783186	0
0.24492879	-418.286468021803	754.5199215599	0
0.24504837	-419.265304064134	756.590069177247	0
0.24517188	-420.246547693373	758.666094603893	0
0.24529142	-421.230207581161	760.748018407514	0
0.24541491	-422.216290585816	762.835857452586	0
0.2455344	-423.204804991834	764.929631445695	0
0.24565775	-424.195757499889	767.029356855992	0
0.24577721	-425.189155456484	769.135051401678	0
0.24590058	-426.185004650573	771.246729661168	0
0.24601999	-427.18331234981	773.364409244262	0
0.24614303	-428.184084355111	775.488104981348	0
0.24626243	-429.187328699353	777.617836115598	0
0.24638559	-430.193051504332	779.753618017976	0
0.24650496	-431.201260459413	781.895469199411	0
0.2466271	-432.211961763286	784.043405138799	0
0.24674641	-433.225162785844	786.197443667483	0
0.24686952	-434.240869356071	788.3575995649	0
0.24698877	-435.259089362004	790.523891696484	0
0.24711121	-436.279828457387	792.696334390041	0
0.24723048	-437.303093603702	794.874944521229	0
0.24735341	-438.328890087855	797.059735476044	0
0.2474726	-439.357224066542	799.250722357829	0
0.24759448	-440.388100147392	801.447917206392	0
0.24771365	-441.421524939897	803.651336102586	0
0.24783657	-442.457503715741	805.860992591376	0
0.24795565	-443.496044446268	808.07690569022	0
0.24807812	-444.537154340241	810.2990929934	0
0.24819726	-445.580843509514	812.527577986923	0
0.24832002	-446.627120588452	814.762381202458	0
0.24843904	-447.675996450259	817.003527745995	0
0.24856096	-448.72748107095	819.251040912867	0
0.24868003	-449.78158641929	821.504948125616	0
0.24880273	-450.8383234775	823.76527496096	0
0.24892167	-451.897706109366	826.032052889214	0
0.24904377	-452.959746548713	828.305310082455	0
0.24916281	-454.024459071952	830.58507888983	0
0.2492854	-455.091856672972	832.871389014216	0
0.24940427	-456.161953932524	835.164273463581	0
0.24952618	-457.234763993632	837.463762415853	0
0.24964517	-458.310302284632	839.769890670044	0
0.24976768	-459.38858198151	842.082688403328	0
0.24988649	-460.469617782665	844.402188850771	0
0.25000844	-461.553422539615	846.728421392801	0
0.25012739	-462.640010344673	849.061417998	0
0.25024982	-463.729393209919	851.401206489293	0
0.25036857	-464.821584916945	853.747818147756	0
0.25049048	-465.916596517151	856.10127858141	0
0.2506094	-467.014440171272	858.461615559749	0
0.25073175	-468.115125733757	860.828852056189	0
0.25085045	-469.218664222172	863.203013447108	0
0.25097235	-470.325064284242	865.584120387629	0
0.25109124	-471.434336317987	867.9721970079	0
0.2512135	-472.546488553298	870.36726302943	0
0.25133218	-473.661531133143	872.769342020302	0
0.25145407	-474.779472086309	875.178453223586	0
0.25157292	-475.900321490852	877.59462005829	0
0.25169511	-477.024087483973	880.017861976219	0
0.25181376	-478.150780442584	882.448203020258	0
0.25193564	-479.280408713069	884.885663051241	0
0.25205446	-480.412982846875	887.330266487093	0
0.25217656	-481.548511630829	889.782034120354	0
0.25229521	-482.687006175023	892.240991518197	0
0.25241707	-483.828475297346	894.707159462396	0
0.25253587	-484.972929672708	897.180562533719	0
0.25265788	-486.120378159208	899.661221535205	0
0.25277654	-487.270831565087	902.149161258471	0
0.25289836	-488.424298471587	904.644401942621	0
0.25301714	-489.580789449722	907.14696785745	0
0.25313905	-490.740313324606	909.656879704272	0
0.25325774	-491.902880985153	912.17416232118	0
0.25337952	-493.068500974887	914.69883573178	0
0.25349828	-494.237183516173	917.230923271088	0
0.25362009	-495.408937096174	919.770444835272	0
0.2537388	-496.583772903695	922.317427405223	0
0.25386052	-497.761703261957	924.87190447981	0
0.25397928	-498.942745759629	927.433918231887	0
0.25410099	-500.126918312013	930.003508806184	0
0.25421973	-501.314238344797	932.58071352631	0
0.25434137	-502.504719393998	935.165560749979	0
0.25446014	-503.698373089334	937.758074447309	0
0.25458176	-504.8952079874	940.358272175787	0
0.25470053	-506.095231909417	942.966170022689	0
0.2548221	-507.298450304456	945.581779400851	0
0.25494089	-508.50486887956	948.205112389666	0
0.25506242	-509.714492194403	950.836178900645	0
0.25518123	-510.927325865549	953.474991111883	0
0.25530271	-512.143374258295	956.121558770557	0
0.25542155	-513.362642850448	958.775893975566	0
0.25554298	-514.585136438681	961.438007513174	0
0.25566184	-515.810861262951	964.107913150047	0
0.25578322	-517.039822427836	966.785622399935	0
0.25590211	-518.272026391476	969.471149560519	0
0.25602345	-519.507478870669	972.164507442887	0
0.25614237	-520.746187190469	974.865712120566	0
0.25626366	-521.988157396501	977.574777071805	0
0.25638261	-523.233396954351	980.29171865912	0
0.25650385	-524.481912404879	983.016551344071	0
0.25662284	-525.73371196604	985.749292953426	0
0.25674403	-526.98880240245	988.489958337227	0
0.25686306	-528.247191966765	991.238565336441	0
0.2569842	-529.508887802395	993.99512948443	0
0.25710327	-530.773898787734	996.759669756147	0
0.25722435	-532.042232216598	999.532201857439	0
0.25734347	-533.313896913737	1002.31274452833	0
0.2574645	-534.588900451115	1005.10131387685	0
0.25758366	-535.867252122345	1007.89792936723	0
0.25770463	-537.148959605368	1010.70260710206	0
0.25782384	-538.434032075569	1013.51536607654	0
0.25794476	-539.722477431577	1016.33622256615	0
0.25806402	-541.014305132092	1019.1651957784	0
0.25818488	-542.309523200207	1022.00230188235	0
0.25830419	-543.608140951161	1024.84755938818	0
0.258425	-544.910166671917	1027.70098453487	0
0.25854436	-546.215609767764	1030.56259541668	0
0.25866511	-547.524478791756	1033.43240819548	0
0.25878452	-548.836783025963	1036.31043996363	0
0.25890521	-550.152531514847	1039.19670703481	0
0.25902468	-551.471733462264	1042.091225253	0
0.2591453	-552.797708697657	1044.99934137072	0
0.25926483	-554.157948027424	1047.96972483315	0
0.25938539	-555.622958057233	1051.14665397895	0
0.25950497	-557.248991631692	1054.66721639185	0
0.25962547	-558.97868410833	1058.42819054846	0
0.2597451	-560.703162866764	1062.18722650611	0
0.25986554	-562.375806153888	1065.83268799365	0
0.25998523	-564.002756451901	1069.37635960267	0
0.2601056	-565.602198186612	1072.85906188406	0
0.26022534	-567.188869674041	1076.31370729138	0
0.26034564	-568.772607449648	1079.76189917213	0
0.26046544	-570.360004336777	1083.21781536399	0
0.26058568	-571.955970374166	1086.69177727403	0
0.26070552	-573.564852610399	1090.19274274214	0
